<?xml version="1.0" encoding="utf-8"?>
<!-- Generator: Adobe Illustrator 27.5.0, SVG Export Plug-In . SVG Version: 6.00 Build 0)  -->
<svg version="1.1" id="Layer_1" xmlns="http://www.w3.org/2000/svg" xmlns:xlink="http://www.w3.org/1999/xlink" x="0px" y="0px"
	 viewBox="0 0 2122 2122" style="enable-background:new 0 0 2122 2122;" xml:space="preserve">
<g>
	<rect x="0" style="fill:#001244;" width="2121.321" height="2121.32"/>
	<g>
		<radialGradient id="SVGID_1_" cx="1091.9343" cy="103.0591" r="774.2066" gradientUnits="userSpaceOnUse">
			<stop  offset="0.1683" style="stop-color:#61DEBB"/>
			<stop  offset="0.249" style="stop-color:#5ED7B5"/>
			<stop  offset="0.3659" style="stop-color:#56C4A5"/>
			<stop  offset="0.505" style="stop-color:#48A48A"/>
			<stop  offset="0.661" style="stop-color:#347865"/>
			<stop  offset="0.8305" style="stop-color:#1C4036"/>
			<stop  offset="1" style="stop-color:#000000"/>
		</radialGradient>
		<path style="fill:url(#SVGID_1_);" d="M1060.689,325.553c0,0-109.423,113.556-365.919,146.624
			c-44.618,5.761-83.565,8.117-117.445,8.117c-152.519,0-202.157-47.771-202.157-47.771s-148.217,879.776,685.522,1363.245
			c833.675-483.469,685.464-1363.245,685.464-1363.245s-49.615,47.771-202.162,47.771c-33.872,0-72.842-2.358-117.447-8.117
			C1170.092,439.109,1060.689,325.553,1060.689,325.553L1060.689,325.553z"/>
		
			<radialGradient id="SVGID_00000172421086955586395040000014847929856002036900_" cx="1079.7745" cy="1829.7288" r="1404.1017" gradientUnits="userSpaceOnUse">
			<stop  offset="0.1683" style="stop-color:#61DEBB"/>
			<stop  offset="0.249" style="stop-color:#5ED7B5"/>
			<stop  offset="0.3659" style="stop-color:#56C4A5"/>
			<stop  offset="0.505" style="stop-color:#48A48A"/>
			<stop  offset="0.661" style="stop-color:#347865"/>
			<stop  offset="0.8305" style="stop-color:#1C4036"/>
			<stop  offset="1" style="stop-color:#000000"/>
		</radialGradient>
		<path style="fill:url(#SVGID_00000172421086955586395040000014847929856002036900_);" d="M1060.682,511.446
			c74.438,42.938,188.188,90.707,346.447,111.114c48.128,6.214,94.176,9.365,136.863,9.365c21.282,0,41.256-0.767,60.008-2.17
			c-2.288,76.68-11.866,173.48-38.146,278.971c-73.974,296.947-243.73,534.953-505.168,708.649
			c-261.456-173.696-431.234-411.705-505.214-708.651c-26.287-105.522-35.866-202.322-38.157-278.97
			c18.748,1.402,38.735,2.171,60.011,2.171c42.683,0,88.732-3.151,136.834-9.362C872.448,602.156,986.231,554.381,1060.682,511.446"
			/>
		<g>
			
				<radialGradient id="SVGID_00000115484261162445736970000008258930379157810575_" cx="1060.6584" cy="472.9047" r="1548.0613" gradientUnits="userSpaceOnUse">
				<stop  offset="0" style="stop-color:#61DEBB"/>
				<stop  offset="0.0184" style="stop-color:#5ED6B5"/>
				<stop  offset="0.1666" style="stop-color:#459E85"/>
				<stop  offset="0.3154" style="stop-color:#306E5D"/>
				<stop  offset="0.4616" style="stop-color:#1F463B"/>
				<stop  offset="0.6049" style="stop-color:#112821"/>
				<stop  offset="0.7443" style="stop-color:#08120F"/>
				<stop  offset="0.8781" style="stop-color:#020404"/>
				<stop  offset="1" style="stop-color:#000000"/>
			</radialGradient>
			<path style="fill:url(#SVGID_00000115484261162445736970000008258930379157810575_);" d="M1060.687,1626.478l-4.195-2.788
				c-262.972-174.699-434.011-414.636-508.377-713.133c-22.616-90.779-35.53-185.178-38.38-280.574l-0.25-8.416l8.394,0.628
				c58.575,4.377,124.465,1.995,195.308-7.151c162.512-20.952,276.607-71.475,343.705-110.167l3.79-2.182l3.789,2.182
				c67.067,38.692,181.126,89.211,343.629,110.163c70.843,9.15,136.703,11.547,195.335,7.156l8.394-0.628l-0.25,8.416
				c-2.85,95.409-15.759,189.813-38.372,280.578c-74.36,298.498-245.387,538.429-508.327,713.129L1060.687,1626.478z
				 M525.17,637.896c3.303,91.464,15.964,181.922,37.659,268.992c73.025,293.132,240.506,529.073,497.858,701.373
				c257.325-172.295,424.784-408.237,497.809-701.369c21.691-87.056,34.346-177.518,37.65-268.996
				c-57.64,3.647-121.473,1.02-189.987-7.815c-161.978-20.889-276.745-70.82-345.476-109.9
				c-68.763,39.084-183.566,89.02-345.553,109.904C646.621,638.924,582.756,641.534,525.17,637.896z"/>
			
				<radialGradient id="SVGID_00000150785830979263239750000012034882743507299718_" cx="1071.6675" cy="1805.4099" r="2088.9819" gradientUnits="userSpaceOnUse">
				<stop  offset="0.351" style="stop-color:#347865"/>
				<stop  offset="0.3829" style="stop-color:#2F6D5C"/>
				<stop  offset="0.5137" style="stop-color:#1E463B"/>
				<stop  offset="0.643" style="stop-color:#112821"/>
				<stop  offset="0.7689" style="stop-color:#08120F"/>
				<stop  offset="0.8898" style="stop-color:#020404"/>
				<stop  offset="1" style="stop-color:#000000"/>
			</radialGradient>
			<path style="fill:url(#SVGID_00000150785830979263239750000012034882743507299718_);" d="M1060.689,346.201
				c33.874,29.329,147.26,113.078,363.914,141.015c42.357,5.468,82.527,8.242,119.388,8.242
				c103.158,0,161.667-21.579,190.262-36.957c7.093,63.627,20.239,249.601-33.238,472.008
				c-38.657,160.776-104.081,308.93-194.456,440.345c-111.426,162.026-261.414,299.049-445.871,407.358
				c-184.472-108.309-334.473-245.332-445.906-407.358c-90.382-131.415-155.812-279.569-194.474-440.345
				c-53.48-222.407-40.332-408.384-33.24-472.011c28.596,15.377,87.108,36.959,190.256,36.959c36.862,0,77.03-2.773,119.383-8.242
				C913.401,459.279,1026.807,375.53,1060.689,346.201 M1060.689,325.553c0,0-109.423,113.556-365.919,146.624
				c-44.618,5.761-83.565,8.117-117.445,8.117c-152.519,0-202.157-47.771-202.157-47.771s-148.217,879.776,685.522,1363.245
				c833.675-483.469,685.464-1363.245,685.464-1363.245s-49.615,47.771-202.162,47.771c-33.872,0-72.842-2.358-117.447-8.117
				C1170.092,439.109,1060.689,325.553,1060.689,325.553L1060.689,325.553z"/>
		</g>
		
			<linearGradient id="SVGID_00000063604685771638572960000012976684973693720719_" gradientUnits="userSpaceOnUse" x1="1090.0901" y1="898.3307" x2="1167.1013" y2="1242.8534">
			<stop  offset="0.238" style="stop-color:#73FF49"/>
			<stop  offset="1" style="stop-color:#33CC27"/>
		</linearGradient>
		<polygon style="fill:url(#SVGID_00000063604685771638572960000012976684973693720719_);" points="1372.725,724.552 
			983.971,1113.311 830.067,959.402 723.15,1066.309 983.971,1327.13 1479.633,831.469 		"/>
	</g>
</g>
</svg>
