<svg xmlns="http://www.w3.org/2000/svg" xmlns:xlink="http://www.w3.org/1999/xlink" contentStyleType="text/css" height="835px" preserveAspectRatio="none" style="width:850px;height:835px;background:#FFFFFF;" version="1.1" viewBox="0 0 850 835" width="850px" zoomAndPan="magnify"><defs/><g><!--cluster package1--><g id="cluster_package1"><path d="M294.5,6 L371.2832,6 A3.75,3.75 0 0 1 373.7832,8.5 L380.7832,28.2969 L828.5,28.2969 A2.5,2.5 0 0 1 831,30.7969 L831,562.5 A2.5,2.5 0 0 1 828.5,565 L294.5,565 A2.5,2.5 0 0 1 292,562.5 L292,8.5 A2.5,2.5 0 0 1 294.5,6 " fill="none" style="stroke:#000000;stroke-width:1.5;"/><line style="stroke:#000000;stroke-width:1.5;" x1="292" x2="380.7832" y1="28.2969" y2="28.2969"/><text fill="#000000" font-family="sans-serif" font-size="14" font-weight="bold" lengthAdjust="spacing" textLength="75.7832" x="296" y="20.9951">package1</text></g><!--cluster weaponpackage--><g id="cluster_weaponpackage"><path d="M8.5,589 L137.0244,589 A3.75,3.75 0 0 1 139.5244,591.5 L146.5244,611.2969 L350.5,611.2969 A2.5,2.5 0 0 1 353,613.7969 L353,825.5 A2.5,2.5 0 0 1 350.5,828 L8.5,828 A2.5,2.5 0 0 1 6,825.5 L6,591.5 A2.5,2.5 0 0 1 8.5,589 " fill="none" style="stroke:#000000;stroke-width:1.5;"/><line style="stroke:#000000;stroke-width:1.5;" x1="6" x2="146.5244" y1="611.2969" y2="611.2969"/><text fill="#000000" font-family="sans-serif" font-size="14" font-weight="bold" lengthAdjust="spacing" textLength="127.5244" x="10" y="603.9951">weaponpackage</text></g><!--class game--><g id="elem_game"><rect codeLine="2" fill="#F1F1F1" height="113.1875" id="game" rx="2.5" ry="2.5" style="stroke:#181818;stroke-width:0.5;" width="181.7295" x="633" y="41"/><ellipse cx="699.7563" cy="57" fill="#ADD1B2" rx="11" ry="11" style="stroke:#181818;stroke-width:1;"/><path d="M702.7251,62.6406 Q702.147,62.9375 701.5063,63.0781 Q700.8657,63.2344 700.1626,63.2344 Q697.6626,63.2344 696.3345,61.5938 Q695.022,59.9375 695.022,56.8125 Q695.022,53.6875 696.3345,52.0313 Q697.6626,50.375 700.1626,50.375 Q700.8657,50.375 701.5063,50.5313 Q702.1626,50.6875 702.7251,50.9844 L702.7251,53.7031 Q702.1001,53.125 701.5063,52.8594 Q700.9126,52.5781 700.2876,52.5781 Q698.9438,52.5781 698.2563,53.6563 Q697.5688,54.7188 697.5688,56.8125 Q697.5688,58.9063 698.2563,59.9844 Q698.9438,61.0469 700.2876,61.0469 Q700.9126,61.0469 701.5063,60.7813 Q702.1001,60.5 702.7251,59.9219 L702.7251,62.6406 Z " fill="#000000"/><text fill="#000000" font-family="sans-serif" font-size="14" lengthAdjust="spacing" textLength="39.7168" x="720.2563" y="61.8467">game</text><line style="stroke:#181818;stroke-width:0.5;" x1="634" x2="813.7295" y1="73" y2="73"/><rect fill="none" height="6" style="stroke:#C82930;stroke-width:1;" width="6" x="641" y="83.6484"/><text fill="#000000" font-family="sans-serif" font-size="14" lengthAdjust="spacing" textLength="155.7295" x="653" y="89.9951">ScreenHandler handle</text><rect fill="none" height="6" style="stroke:#C82930;stroke-width:1;" width="6" x="641" y="99.9453"/><text fill="#000000" font-family="sans-serif" font-size="14" lengthAdjust="spacing" textLength="137.8604" x="653" y="106.292">gamescreen screen</text><line style="stroke:#181818;stroke-width:1;" x1="634" x2="813.7295" y1="113.5938" y2="113.5938"/><ellipse cx="644" cy="127.2422" fill="#84BE84" rx="3" ry="3" style="stroke:#038048;stroke-width:1;"/><text fill="#000000" font-family="sans-serif" font-size="14" lengthAdjust="spacing" textLength="133.5742" x="653" y="130.5889">main(String[] args)</text><ellipse cx="644" cy="143.5391" fill="#84BE84" rx="3" ry="3" style="stroke:#038048;stroke-width:1;"/><text fill="#000000" font-family="sans-serif" font-size="14" lengthAdjust="spacing" textLength="50.6406" x="653" y="146.8857">game()</text></g><!--class gamescreen--><g id="elem_gamescreen"><rect codeLine="10" fill="#F1F1F1" height="162.0781" id="gamescreen" rx="2.5" ry="2.5" style="stroke:#181818;stroke-width:0.5;" width="413.5498" x="347" y="387"/><ellipse cx="506.2432" cy="403" fill="#ADD1B2" rx="11" ry="11" style="stroke:#181818;stroke-width:1;"/><path d="M509.2119,408.6406 Q508.6338,408.9375 507.9932,409.0781 Q507.3525,409.2344 506.6494,409.2344 Q504.1494,409.2344 502.8213,407.5938 Q501.5088,405.9375 501.5088,402.8125 Q501.5088,399.6875 502.8213,398.0313 Q504.1494,396.375 506.6494,396.375 Q507.3525,396.375 507.9932,396.5313 Q508.6494,396.6875 509.2119,396.9844 L509.2119,399.7031 Q508.5869,399.125 507.9932,398.8594 Q507.3994,398.5781 506.7744,398.5781 Q505.4307,398.5781 504.7432,399.6563 Q504.0557,400.7188 504.0557,402.8125 Q504.0557,404.9063 504.7432,405.9844 Q505.4307,407.0469 506.7744,407.0469 Q507.3994,407.0469 507.9932,406.7813 Q508.5869,406.5 509.2119,405.9219 L509.2119,408.6406 Z " fill="#000000"/><text fill="#000000" font-family="sans-serif" font-size="14" lengthAdjust="spacing" textLength="86.5635" x="526.7432" y="407.8467">gamescreen</text><line style="stroke:#181818;stroke-width:0.5;" x1="348" x2="759.5498" y1="419" y2="419"/><rect fill="none" height="6" style="stroke:#C82930;stroke-width:1;" width="6" x="355" y="429.6484"/><text fill="#000000" font-family="sans-serif" font-size="14" lengthAdjust="spacing" textLength="109.9287" x="367" y="435.9951">Container Wrap</text><rect fill="none" height="6" style="stroke:#C82930;stroke-width:1;" width="6" x="355" y="445.9453"/><text fill="#000000" font-family="sans-serif" font-size="14" lengthAdjust="spacing" textLength="78.9551" x="367" y="452.292">JFrame box</text><rect fill="none" height="6" style="stroke:#C82930;stroke-width:1;" width="6" x="355" y="462.2422"/><text fill="#000000" font-family="sans-serif" font-size="14" lengthAdjust="spacing" textLength="331.5361" x="367" y="468.5889">JPanel questions, nameWrap, choiceBtn, player</text><rect fill="none" height="6" style="stroke:#C82930;stroke-width:1;" width="6" x="355" y="478.5391"/><text fill="#000000" font-family="sans-serif" font-size="14" lengthAdjust="spacing" textLength="158.9834" x="367" y="484.8857">JTextArea questionBox</text><rect fill="none" height="6" style="stroke:#C82930;stroke-width:1;" width="6" x="355" y="494.8359"/><text fill="#000000" font-family="sans-serif" font-size="14" lengthAdjust="spacing" textLength="341.3936" x="367" y="501.1826">JLabel name, hp, hpNum, weapon, weaponName</text><rect fill="none" height="6" style="stroke:#C82930;stroke-width:1;" width="6" x="355" y="511.1328"/><text fill="#000000" font-family="sans-serif" font-size="14" lengthAdjust="spacing" textLength="387.5498" x="367" y="517.4795">JButton startButton, choice1, choice2, choice3, choice4</text><line style="stroke:#181818;stroke-width:1;" x1="348" x2="759.5498" y1="524.7813" y2="524.7813"/><ellipse cx="358" cy="538.4297" fill="#84BE84" rx="3" ry="3" style="stroke:#038048;stroke-width:1;"/><text fill="#000000" font-family="sans-serif" font-size="14" lengthAdjust="spacing" textLength="259.8408" x="367" y="541.7764">createScreen(ScreenHandler handle)</text></g><!--class story--><g id="elem_story"><rect codeLine="21" fill="#F1F1F1" height="113.1875" id="story" rx="2.5" ry="2.5" style="stroke:#181818;stroke-width:0.5;" width="416.0723" x="308" y="214"/><ellipse cx="494.0913" cy="230" fill="#ADD1B2" rx="11" ry="11" style="stroke:#181818;stroke-width:1;"/><path d="M497.0601,235.6406 Q496.4819,235.9375 495.8413,236.0781 Q495.2007,236.2344 494.4976,236.2344 Q491.9976,236.2344 490.6694,234.5938 Q489.3569,232.9375 489.3569,229.8125 Q489.3569,226.6875 490.6694,225.0313 Q491.9976,223.375 494.4976,223.375 Q495.2007,223.375 495.8413,223.5313 Q496.4976,223.6875 497.0601,223.9844 L497.0601,226.7031 Q496.4351,226.125 495.8413,225.8594 Q495.2476,225.5781 494.6226,225.5781 Q493.2788,225.5781 492.5913,226.6563 Q491.9038,227.7188 491.9038,229.8125 Q491.9038,231.9063 492.5913,232.9844 Q493.2788,234.0469 494.6226,234.0469 Q495.2476,234.0469 495.8413,233.7813 Q496.4351,233.5 497.0601,232.9219 L497.0601,235.6406 Z " fill="#000000"/><text fill="#000000" font-family="sans-serif" font-size="14" lengthAdjust="spacing" textLength="35.3896" x="514.5913" y="234.8467">story</text><line style="stroke:#181818;stroke-width:0.5;" x1="309" x2="723.0723" y1="246" y2="246"/><rect fill="none" height="6" style="stroke:#C82930;stroke-width:1;" width="6" x="316" y="256.6484"/><text fill="#000000" font-family="sans-serif" font-size="14" lengthAdjust="spacing" textLength="83.8838" x="328" y="262.9951">game game</text><rect fill="none" height="6" style="stroke:#C82930;stroke-width:1;" width="6" x="316" y="272.9453"/><text fill="#000000" font-family="sans-serif" font-size="14" lengthAdjust="spacing" textLength="137.8604" x="328" y="279.292">gamescreen screen</text><line style="stroke:#181818;stroke-width:1;" x1="309" x2="723.0723" y1="286.5938" y2="286.5938"/><ellipse cx="319" cy="300.2422" fill="#84BE84" rx="3" ry="3" style="stroke:#038048;stroke-width:1;"/><text fill="#000000" font-family="sans-serif" font-size="14" lengthAdjust="spacing" textLength="390.0723" x="328" y="303.5889">story(game g, gamescreen gs, Screenvisibility screenv)</text><ellipse cx="319" cy="316.5391" fill="#84BE84" rx="3" ry="3" style="stroke:#038048;stroke-width:1;"/><text fill="#000000" font-family="sans-serif" font-size="14" lengthAdjust="spacing" textLength="100.9326" x="328" y="319.8857">defaultSetup()</text></g><!--class Screenvisibility--><g id="elem_Screenvisibility"><rect codeLine="29" fill="#F1F1F1" height="113.1875" id="Screenvisibility" rx="2.5" ry="2.5" style="stroke:#181818;stroke-width:0.5;" width="289.8193" x="308" y="41"/><ellipse cx="395.5957" cy="57" fill="#ADD1B2" rx="11" ry="11" style="stroke:#181818;stroke-width:1;"/><path d="M398.5645,62.6406 Q397.9863,62.9375 397.3457,63.0781 Q396.7051,63.2344 396.002,63.2344 Q393.502,63.2344 392.1738,61.5938 Q390.8613,59.9375 390.8613,56.8125 Q390.8613,53.6875 392.1738,52.0313 Q393.502,50.375 396.002,50.375 Q396.7051,50.375 397.3457,50.5313 Q398.002,50.6875 398.5645,50.9844 L398.5645,53.7031 Q397.9395,53.125 397.3457,52.8594 Q396.752,52.5781 396.127,52.5781 Q394.7832,52.5781 394.0957,53.6563 Q393.4082,54.7188 393.4082,56.8125 Q393.4082,58.9063 394.0957,59.9844 Q394.7832,61.0469 396.127,61.0469 Q396.752,61.0469 397.3457,60.7813 Q397.9395,60.5 398.5645,59.9219 L398.5645,62.6406 Z " fill="#000000"/><text fill="#000000" font-family="sans-serif" font-size="14" lengthAdjust="spacing" textLength="106.1279" x="416.0957" y="61.8467">Screenvisibility</text><line style="stroke:#181818;stroke-width:0.5;" x1="309" x2="596.8193" y1="73" y2="73"/><rect fill="none" height="6" style="stroke:#C82930;stroke-width:1;" width="6" x="316" y="83.6484"/><text fill="#000000" font-family="sans-serif" font-size="14" lengthAdjust="spacing" textLength="137.8604" x="328" y="89.9951">gamescreen screen</text><line style="stroke:#181818;stroke-width:1;" x1="309" x2="596.8193" y1="97.2969" y2="97.2969"/><ellipse cx="319" cy="110.9453" fill="#84BE84" rx="3" ry="3" style="stroke:#038048;stroke-width:1;"/><text fill="#000000" font-family="sans-serif" font-size="14" lengthAdjust="spacing" textLength="263.8193" x="328" y="114.292">Screenvisibility(gamescreen screen1)</text><ellipse cx="319" cy="127.2422" fill="#84BE84" rx="3" ry="3" style="stroke:#038048;stroke-width:1;"/><text fill="#000000" font-family="sans-serif" font-size="14" lengthAdjust="spacing" textLength="88.4502" x="328" y="130.5889">showHome()</text><ellipse cx="319" cy="143.5391" fill="#84BE84" rx="3" ry="3" style="stroke:#038048;stroke-width:1;"/><text fill="#000000" font-family="sans-serif" font-size="14" lengthAdjust="spacing" textLength="85.1621" x="328" y="146.8857">gamePage()</text></g><!--class weapon--><g id="elem_weapon"><rect codeLine="39" fill="#F1F1F1" height="64.2969" id="weapon" rx="2.5" ry="2.5" style="stroke:#181818;stroke-width:0.5;" width="158.7334" x="99.5" y="624"/><ellipse cx="147.1328" cy="640" fill="#ADD1B2" rx="11" ry="11" style="stroke:#181818;stroke-width:1;"/><path d="M150.1016,645.6406 Q149.5234,645.9375 148.8828,646.0781 Q148.2422,646.2344 147.5391,646.2344 Q145.0391,646.2344 143.7109,644.5938 Q142.3984,642.9375 142.3984,639.8125 Q142.3984,636.6875 143.7109,635.0313 Q145.0391,633.375 147.5391,633.375 Q148.2422,633.375 148.8828,633.5313 Q149.5391,633.6875 150.1016,633.9844 L150.1016,636.7031 Q149.4766,636.125 148.8828,635.8594 Q148.2891,635.5781 147.6641,635.5781 Q146.3203,635.5781 145.6328,636.6563 Q144.9453,637.7188 144.9453,639.8125 Q144.9453,641.9063 145.6328,642.9844 Q146.3203,644.0469 147.6641,644.0469 Q148.2891,644.0469 148.8828,643.7813 Q149.4766,643.5 150.1016,642.9219 L150.1016,645.6406 Z " fill="#000000"/><text fill="#000000" font-family="sans-serif" font-size="14" lengthAdjust="spacing" textLength="54.9678" x="167.6328" y="644.8467">weapon</text><line style="stroke:#181818;stroke-width:0.5;" x1="100.5" x2="257.2334" y1="656" y2="656"/><ellipse cx="110.5" cy="669.6484" fill="none" rx="3" ry="3" style="stroke:#038048;stroke-width:1;"/><text fill="#000000" font-family="sans-serif" font-size="14" lengthAdjust="spacing" textLength="132.7334" x="119.5" y="672.9951">String weapondata</text><line style="stroke:#181818;stroke-width:0.5;" x1="100.5" x2="257.2334" y1="680.2969" y2="680.2969"/></g><!--class weapon_stone--><g id="elem_weapon_stone"><rect codeLine="43" fill="#F1F1F1" height="64.2969" id="weapon_stone" rx="2.5" ry="2.5" style="stroke:#181818;stroke-width:0.5;" width="137.7266" x="22" y="748"/><ellipse cx="39.2157" cy="764" fill="#ADD1B2" rx="11" ry="11" style="stroke:#181818;stroke-width:1;"/><path d="M42.1845,769.6406 Q41.6063,769.9375 40.9657,770.0781 Q40.3251,770.2344 39.622,770.2344 Q37.122,770.2344 35.7938,768.5938 Q34.4813,766.9375 34.4813,763.8125 Q34.4813,760.6875 35.7938,759.0313 Q37.122,757.375 39.622,757.375 Q40.3251,757.375 40.9657,757.5313 Q41.622,757.6875 42.1845,757.9844 L42.1845,760.7031 Q41.5595,760.125 40.9657,759.8594 Q40.372,759.5781 39.747,759.5781 Q38.4032,759.5781 37.7157,760.6563 Q37.0282,761.7188 37.0282,763.8125 Q37.0282,765.9063 37.7157,766.9844 Q38.4032,768.0469 39.747,768.0469 Q40.372,768.0469 40.9657,767.7813 Q41.5595,767.5 42.1845,766.9219 L42.1845,769.6406 Z " fill="#000000"/><text fill="#000000" font-family="sans-serif" font-size="14" lengthAdjust="spacing" textLength="100.8027" x="53.7081" y="768.8467">weapon_stone</text><line style="stroke:#181818;stroke-width:0.5;" x1="23" x2="158.7266" y1="780" y2="780"/><line style="stroke:#181818;stroke-width:0.5;" x1="23" x2="158.7266" y1="788" y2="788"/><ellipse cx="33" cy="801.6484" fill="#84BE84" rx="3" ry="3" style="stroke:#038048;stroke-width:1;"/><text fill="#000000" font-family="sans-serif" font-size="14" lengthAdjust="spacing" textLength="111.7266" x="42" y="804.9951">weapon_stone()</text></g><!--class weapon_sword--><g id="elem_weapon_sword"><rect codeLine="47" fill="#F1F1F1" height="64.2969" id="weapon_sword" rx="2.5" ry="2.5" style="stroke:#181818;stroke-width:0.5;" width="140.8438" x="195.5" y="748"/><ellipse cx="212.7157" cy="764" fill="#ADD1B2" rx="11" ry="11" style="stroke:#181818;stroke-width:1;"/><path d="M215.6845,769.6406 Q215.1063,769.9375 214.4657,770.0781 Q213.8251,770.2344 213.122,770.2344 Q210.622,770.2344 209.2938,768.5938 Q207.9813,766.9375 207.9813,763.8125 Q207.9813,760.6875 209.2938,759.0313 Q210.622,757.375 213.122,757.375 Q213.8251,757.375 214.4657,757.5313 Q215.122,757.6875 215.6845,757.9844 L215.6845,760.7031 Q215.0595,760.125 214.4657,759.8594 Q213.872,759.5781 213.247,759.5781 Q211.9032,759.5781 211.2157,760.6563 Q210.5282,761.7188 210.5282,763.8125 Q210.5282,765.9063 211.2157,766.9844 Q211.9032,768.0469 213.247,768.0469 Q213.872,768.0469 214.4657,767.7813 Q215.0595,767.5 215.6845,766.9219 L215.6845,769.6406 Z " fill="#000000"/><text fill="#000000" font-family="sans-serif" font-size="14" lengthAdjust="spacing" textLength="103.9199" x="227.2081" y="768.8467">weapon_sword</text><line style="stroke:#181818;stroke-width:0.5;" x1="196.5" x2="335.3438" y1="780" y2="780"/><line style="stroke:#181818;stroke-width:0.5;" x1="196.5" x2="335.3438" y1="788" y2="788"/><ellipse cx="206.5" cy="801.6484" fill="#84BE84" rx="3" ry="3" style="stroke:#038048;stroke-width:1;"/><text fill="#000000" font-family="sans-serif" font-size="14" lengthAdjust="spacing" textLength="114.8438" x="215.5" y="804.9951">weapon_sword()</text></g><!--class player--><g id="elem_player"><rect codeLine="52" fill="#F1F1F1" height="80.5938" id="player" rx="2.5" ry="2.5" style="stroke:#181818;stroke-width:0.5;" width="193.8359" x="82" y="427.5"/><ellipse cx="152.6631" cy="443.5" fill="#ADD1B2" rx="11" ry="11" style="stroke:#181818;stroke-width:1;"/><path d="M155.6318,449.1406 Q155.0537,449.4375 154.4131,449.5781 Q153.7725,449.7344 153.0693,449.7344 Q150.5693,449.7344 149.2412,448.0938 Q147.9287,446.4375 147.9287,443.3125 Q147.9287,440.1875 149.2412,438.5313 Q150.5693,436.875 153.0693,436.875 Q153.7725,436.875 154.4131,437.0313 Q155.0693,437.1875 155.6318,437.4844 L155.6318,440.2031 Q155.0068,439.625 154.4131,439.3594 Q153.8193,439.0781 153.1943,439.0781 Q151.8506,439.0781 151.1631,440.1563 Q150.4756,441.2188 150.4756,443.3125 Q150.4756,445.4063 151.1631,446.4844 Q151.8506,447.5469 153.1943,447.5469 Q153.8193,447.5469 154.4131,447.2813 Q155.0068,447 155.6318,446.4219 L155.6318,449.1406 Z " fill="#000000"/><text fill="#000000" font-family="sans-serif" font-size="14" lengthAdjust="spacing" textLength="44.0098" x="173.1631" y="448.3467">player</text><line style="stroke:#181818;stroke-width:0.5;" x1="83" x2="274.8359" y1="459.5" y2="459.5"/><ellipse cx="93" cy="473.1484" fill="none" rx="3" ry="3" style="stroke:#038048;stroke-width:1;"/><text fill="#000000" font-family="sans-serif" font-size="14" lengthAdjust="spacing" textLength="86.126" x="102" y="476.4951">int playerHp</text><ellipse cx="93" cy="489.4453" fill="none" rx="3" ry="3" style="stroke:#038048;stroke-width:1;"/><text fill="#000000" font-family="sans-serif" font-size="14" lengthAdjust="spacing" textLength="167.8359" x="102" y="492.792">weapon currentWeapon</text><line style="stroke:#181818;stroke-width:0.5;" x1="83" x2="274.8359" y1="500.0938" y2="500.0938"/></g><!--class ScreenHandler--><g id="elem_ScreenHandler"><rect fill="#F1F1F1" height="48" id="ScreenHandler" rx="2.5" ry="2.5" style="stroke:#181818;stroke-width:0.5;" width="135.5645" x="616" y="632"/><ellipse cx="631" cy="648" fill="#ADD1B2" rx="11" ry="11" style="stroke:#181818;stroke-width:1;"/><path d="M633.9688,653.6406 Q633.3906,653.9375 632.75,654.0781 Q632.1094,654.2344 631.4063,654.2344 Q628.9063,654.2344 627.5781,652.5938 Q626.2656,650.9375 626.2656,647.8125 Q626.2656,644.6875 627.5781,643.0313 Q628.9063,641.375 631.4063,641.375 Q632.1094,641.375 632.75,641.5313 Q633.4063,641.6875 633.9688,641.9844 L633.9688,644.7031 Q633.3438,644.125 632.75,643.8594 Q632.1563,643.5781 631.5313,643.5781 Q630.1875,643.5781 629.5,644.6563 Q628.8125,645.7188 628.8125,647.8125 Q628.8125,649.9063 629.5,650.9844 Q630.1875,652.0469 631.5313,652.0469 Q632.1563,652.0469 632.75,651.7813 Q633.3438,651.5 633.9688,650.9219 L633.9688,653.6406 Z " fill="#000000"/><text fill="#000000" font-family="sans-serif" font-size="14" lengthAdjust="spacing" textLength="103.5645" x="645" y="652.8467">ScreenHandler</text><line style="stroke:#181818;stroke-width:0.5;" x1="617" x2="750.5645" y1="664" y2="664"/><line style="stroke:#181818;stroke-width:0.5;" x1="617" x2="750.5645" y1="672" y2="672"/></g><!--reverse link weapon to weapon_stone--><g id="link_weapon_weapon_stone"><path d="M146.0416,702.6998 C132.8016,721.0598 126.63,729.61 113.39,747.96 " fill="none" id="weapon-backto-weapon_stone" style="stroke:#181818;stroke-width:1;"/><polygon fill="none" points="156.57,688.1,141.175,699.1903,150.9082,706.2092,156.57,688.1" style="stroke:#181818;stroke-width:1;"/></g><!--reverse link weapon to weapon_sword--><g id="link_weapon_weapon_sword"><path d="M211.6294,702.7564 C224.7194,721.1164 230.78,729.61 243.86,747.96 " fill="none" id="weapon-backto-weapon_sword" style="stroke:#181818;stroke-width:1;"/><polygon fill="none" points="201.18,688.1,206.744,706.2395,216.5149,699.2732,201.18,688.1" style="stroke:#181818;stroke-width:1;"/></g><!--link game to ScreenHandler--><g id="link_game_ScreenHandler"><path codeLine="57" d="M748.49,154.07 C785.08,245.82 843.21,432.75 779,573 C767.75,597.56 750.0418,614.1529 729.6918,628.2529 " fill="none" id="game-to-ScreenHandler" style="stroke:#181818;stroke-width:1;"/><polygon fill="#181818" points="724.76,631.67,734.4359,629.8322,728.8699,628.8224,729.8797,623.2564,724.76,631.67" style="stroke:#181818;stroke-width:1;"/></g><!--link game to gamescreen--><g id="link_game_gamescreen"><path codeLine="58" d="M743.94,154.23 C757.71,202.53 769.14,272.95 742,327 C730.59,349.73 718.013,365.711 698.763,382.921 " fill="none" id="game-to-gamescreen" style="stroke:#181818;stroke-width:1;"/><polygon fill="#181818" points="694.29,386.92,703.6655,383.9035,698.0175,383.5875,698.3335,377.9395,694.29,386.92" style="stroke:#181818;stroke-width:1;"/></g><!--link game to story--><g id="link_game_story"><path codeLine="59" d="M656.47,154.02 C633.1,173.23 611.5541,190.9388 588.1841,210.1588 " fill="none" id="game-to-story" style="stroke:#181818;stroke-width:1;"/><polygon fill="#181818" points="583.55,213.97,593.0419,211.3426,587.4117,210.794,587.9604,205.1638,583.55,213.97" style="stroke:#181818;stroke-width:1;"/></g><!--link story to gamescreen--><g id="link_story_gamescreen"><path codeLine="60" d="M526.84,327.26 C530.44,345.77 533.3762,360.87 537.2562,380.85 " fill="none" id="story-to-gamescreen" style="stroke:#181818;stroke-width:1;"/><polygon fill="#181818" points="538.4,386.74,540.6109,377.1425,537.4468,381.8317,532.7577,378.6676,538.4,386.74" style="stroke:#181818;stroke-width:1;"/></g><!--link story to player--><g id="link_story_player"><path codeLine="61" d="M400.64,327.09 C365.21,345.19 326.49,366.04 292,387 C271.77,399.3 255.2423,410.4685 236.5823,423.8785 " fill="none" id="story-to-player" style="stroke:#181818;stroke-width:1;"/><polygon fill="#181818" points="231.71,427.38,241.3528,425.376,235.7703,424.4621,236.6842,418.8795,231.71,427.38" style="stroke:#181818;stroke-width:1;"/></g><!--link player to weapon--><g id="link_player_weapon"><path codeLine="62" d="M179,508.9 C179,543.27 179,586.2 179,617.77 " fill="none" id="player-to-weapon" style="stroke:#181818;stroke-width:1;"/><polygon fill="#181818" points="179,623.77,183,614.77,179,618.77,175,614.77,179,623.77" style="stroke:#181818;stroke-width:1;"/></g><!--link gamescreen to ScreenHandler--><g id="link_gamescreen_ScreenHandler"><path codeLine="63" d="M610.07,549.23 C630.97,579.12 649.6735,605.8816 664.2135,626.6916 " fill="none" id="gamescreen-to-ScreenHandler" style="stroke:#181818;stroke-width:1;"/><polygon fill="#181818" points="667.65,631.61,665.7742,621.9414,664.7863,627.5113,659.2163,626.5234,667.65,631.61" style="stroke:#181818;stroke-width:1;"/></g><!--SRC=[bLHDIyD04BtdLymnqlHGzInOGOg852hq82BJP4mNqzsuEsajudztDxjfjcqE6WWxcPdtyZ8VgJ7_m9AWzkS4lXEmLrwXCL3YXeB3NMDOv9f8pb0M5MbOjsSKTlccJG5_zB7nmHp11eLC5wo5B5zU0NLfBgAe8qczuoSv4HF8OqbtIhBbitAM6kiey72ldVoL-egTSvHKmMT3XeMI9WDfanmoWtojH4vJbXdK5Uv9nxXd-k9RJNY0Jezv7t5bUHrP1klQtK_D9eCTOQraTpxPS0oQDipArefHixSx5PFEkEoCgywu7YwghGmo-GQbGtqQAAbXfVT7rMmxNXxB_6DNMxBK4sGngBHLzeAsmeYLg0Jl0zCsRdn1xzXKl21kwg41EEFu_h_8Kuxq33U99PcrsitKOHxx0PtRNJbej2h3-eG-Tq_nBlb8fDcAQLSWH0faFFzc7tkpjPK4TWH95eDKSTvGxRhuJkdYBpmkB_u-p-BN8W1682G7rwnEOZpaZTOaUTa-ENmx5kFnpV4Vf7VtRUXzxK0bVaPFSdfdsDIWp7cyX2HgxDbxVm40]--></g></svg>